<svg version="1.1" preserveAspectRatio="none" xmlns="http://www.w3.org/2000/svg" width="500" height="500" viewBox="0 0 500 500"><rect width="100%" height="100%" fill="#000000" fill-opacity="1"/><svg viewBox="354.6283 240.8109 368.6142 70" width="333" height="63.23684763093772" x="83.5px" y="218.3816px" xmlns="http://www.w3.org/2000/svg" xmlns:xlink="http://www.w3.org/1999/xlink" preserveAspectRatio="none"><defs></defs><style>.aD6z1nYkhcolor {fill:#E3E3E3;fill-opacity:1;}.atBXipXk0bfillColor {fill:#808080;fill-opacity:1;}.icon3-str {stroke:#808080;stroke-opacity:1;}.shapeStroke-str {stroke:#E3E3E3;stroke-opacity:1;}</style><g opacity="1" transform="rotate(0 371.6283 240.8109)">
<svg width="351.6142" height="70" x="371.6283" y="240.8109" version="1.1" preserveAspectRatio="none" viewBox="1.52 -29.72 183.04 36.44">
  <g transform="matrix(1 0 0 1 0 0)" class="aD6z1nYkhcolor"><path id="id-D6z1nYkh10" d="M21.68-2.76L24.56-0.96L22.72 3.08L15.24 0.60L15.24-1.40L12.88 0.60Q8.48 0.60 6.06-0.60Q3.64-1.80 2.58-4.60Q1.52-7.40 1.52-12.48L1.52-12.48Q1.52-17.56 2.56-20.38Q3.60-23.20 6.04-24.40Q8.48-25.60 12.88-25.60L12.88-25.60Q17.24-25.60 19.68-24.38Q22.12-23.16 23.16-20.36Q24.20-17.56 24.20-12.48L24.20-12.48Q24.20-8.76 23.60-6.44Q23-4.12 21.68-2.76L21.68-2.76ZM13.52-5.40Q15.32-5.40 16.02-5.92Q16.72-6.44 16.72-7.72L16.72-7.72L16.72-19.60L12.24-19.60Q10.44-19.60 9.78-19.10Q9.12-18.60 9.12-17.28L9.12-17.28L9.12-5.40L13.52-5.40Z M47-20L47 0L43.52 0L41.76-2Q38.36 0.56 33.80 0.56L33.80 0.56Q30.76 0.56 29.36-0.74Q27.96-2.04 27.96-4.88L27.96-4.88L27.96-20L35-20L35-4.28L37.96-4.28Q39.08-4.28 39.52-4.60Q39.96-4.92 39.96-5.68L39.96-5.68L39.96-20L47-20Z M51.44 0L51.44 0ZM51.76-19.16L58.80-20.08L58.80 0L51.76 0L51.76-19.16ZM55.24-22.12Q53.72-22.12 52.92-22.44Q52.12-22.76 51.78-23.56Q51.44-24.36 51.44-25.88L51.44-25.88Q51.44-28.08 52.24-28.90Q53.04-29.72 55.24-29.72L55.24-29.72Q57.44-29.72 58.24-28.90Q59.04-28.08 59.04-25.88L59.04-25.88Q59.04-23.68 58.24-22.90Q57.44-22.12 55.24-22.12L55.24-22.12Z M71.28 0.56Q68.20 0.56 66.30-0.50Q64.40-1.56 63.52-3.88Q62.64-6.20 62.64-10L62.64-10Q62.64-13.80 63.52-16.12Q64.40-18.44 66.28-19.50Q68.16-20.56 71.28-20.56L71.28-20.56Q73.04-20.56 75.04-20.32Q77.04-20.08 78.04-19.76L78.04-19.76L77.44-14.80Q75.48-15.36 73.08-15.36L73.08-15.36Q71.48-15.36 70.82-14.66Q70.16-13.96 70.16-12.32L70.16-12.32L70.16-4.88Q71.12-4.64 72.72-4.64L72.72-4.64Q75.28-4.64 77.84-5.68L77.84-5.68L78.48-0.76Q75.24 0.56 71.28 0.56L71.28 0.56Z M90.40-8.52L88.60-8.52L88.60 0L81.56 0L81.56-26L88.60-26.60L88.60-12.80L90.32-12.80L93.52-20L100.96-20L96.20-10.52L101.16 0L93.80 0L90.40-8.52Z M103.60-6.52Q107.52-5.32 111.64-5.32L111.64-5.32Q113.72-5.32 115.20-5.56L115.20-5.56L115.20-9L111.56-9.32Q108.32-9.60 106.46-10.42Q104.60-11.24 103.78-12.78Q102.96-14.32 102.96-16.92L102.96-16.92Q102.96-20.16 103.86-22.04Q104.76-23.92 106.80-24.76Q108.84-25.60 112.36-25.60L112.36-25.60Q117-25.60 121.44-24.52L121.44-24.52L120.56-18.88Q118.52-19.28 117.02-19.46Q115.52-19.64 113.88-19.64L113.88-19.64Q111.84-19.64 110.52-19.44L110.52-19.44L110.52-16L113.80-15.72Q118.60-15.28 120.68-13.42Q122.76-11.56 122.76-7.68L122.76-7.68Q122.76-3.32 120.34-1.36Q117.92 0.60 112.48 0.60L112.48 0.60Q107.16 0.60 102.60-0.72L102.60-0.72L103.60-6.52Z M137.72-20.56Q140.72-20.56 142.52-19.50Q144.32-18.44 145.16-16.14Q146-13.84 146-10L146-10Q146-6.16 145.16-3.84Q144.32-1.52 142.52-0.46Q140.72 0.60 137.72 0.60L137.72 0.60Q135.04 0.60 133.36-0.16L133.36-0.16L133.36 6.16L126.32 6.72L126.32-20L129.80-20L131.12-18.08Q132.12-19.36 133.76-19.96Q135.40-20.56 137.72-20.56L137.72-20.56ZM138.44-5.84L138.44-15.20L135-15.20Q134.04-15.20 133.70-14.98Q133.36-14.76 133.36-14.16L133.36-14.16L133.36-4.76L136.84-4.76Q137.76-4.76 138.10-4.98Q138.44-5.20 138.44-5.84L138.44-5.84Z M156.84-5.04Q157.88-4.88 158.76-4.80L158.76-4.80L158.44-0.04Q156.24 0.56 154.44 0.56L154.44 0.56Q152.08 0.56 150.94-0.42Q149.80-1.40 149.80-3.48L149.80-3.48L149.80-26L156.84-26.60L156.84-5.04Z M161.56 0L161.56 0ZM161.88-19.16L168.92-20.08L168.92 0L161.88 0L161.88-19.16ZM165.36-22.12Q163.84-22.12 163.04-22.44Q162.24-22.76 161.90-23.56Q161.56-24.36 161.56-25.88L161.56-25.88Q161.56-28.08 162.36-28.90Q163.16-29.72 165.36-29.72L165.36-29.72Q167.56-29.72 168.36-28.90Q169.16-28.08 169.16-25.88L169.16-25.88Q169.16-23.68 168.36-22.90Q167.56-22.12 165.36-22.12L165.36-22.12Z M184.56-15.40L181.60-15.40L181.60-5.04Q182.88-4.84 184.08-4.80L184.08-4.80L183.76-0.04Q181.08 0.56 179.20 0.56L179.20 0.56Q176.84 0.56 175.70-0.42Q174.56-1.40 174.56-3.48L174.56-3.48L174.56-15.40L172.36-15.40L172.36-20L174.56-20L174.56-23.44L181.60-25.20L181.60-20L184.56-20L184.56-15.40Z"/></g>
</svg>
</g><g opacity="1" transform="rotate(0 354.6283 240.8109)">
<svg width="3" height="70" x="354.6283" y="240.8109" version="1.1" preserveAspectRatio="none" viewBox="0 0 3 70">
  <defs><rect x="0" y="0" width="3" height="70" rx="0px" ry="0px" id="id-tBXipXk0b1722245060805"></rect></defs><use class="atBXipXk0bfillColor shapeStroke-str" style="stroke-width:0;" xlink:href="#id-tBXipXk0b1722245060805"></use>
</svg>
</g></svg></svg>